<svg id="Layer_1" data-name="Layer 1" xmlns="http://www.w3.org/2000/svg" viewBox="0 0 267.43 220.75"><defs><style>.cls-1{fill:#231f20;}.cls-2{fill:#fff;}</style></defs><circle class="cls-1" cx="133.71" cy="110.38" r="99.69"/><path class="cls-2" d="M108.58,123.27v-54h1c17.39,0,34.78.06,52.17,0,13.62-.07,23.72,10.32,26.17,20.2A27.16,27.16,0,0,1,167.36,123a60.35,60.35,0,0,1-8.74.63c-1.28.07-2.57,0-3.84,0-.34,0-.9.15-.95.34a1.45,1.45,0,0,0,.28,1.08c3.1,4.07,6.23,8.12,9.35,12.17L189,170.42c.11.14.21.29.48.67-2.61-1.22-4.9-2.48-7.33-3.37a18,18,0,0,1-8.25-6.61c-9.3-12.33-18.78-24.51-28.19-36.76a1.61,1.61,0,0,1-.41-.9c0-2.08,0-4.17,0-6.4h1.14c5.06,0,10.12.15,15.17,0,8.13-.29,14.55-3.85,18.28-11.18,4-7.79,2.9-15.4-2.34-22.29-4-5.26-9.52-7.73-16.17-7.72q-22.43,0-44.87,0c-1.41,0-1.41,0-1.41,1.4q0,19.48,0,39a1.87,1.87,0,0,1-.64,1.54C112.57,119.51,110.65,121.33,108.58,123.27Z"/><path class="cls-2" d="M147.75,148.92h-1.19q-27.3,0-54.6,0c-1,0-1.29-.23-1.19-1.19a19.42,19.42,0,0,0,0-2.53c0-.55.16-.83.75-.77a5.23,5.23,0,0,0,.56,0H146.5c1.25,0,1.25,0,1.25,1.28Z"/><path class="cls-2" d="M90.79,57.65c1.41,0,2.65,0,3.9,0,.19,0,.43.31.55.53s0,.42,0,.64q0,25.66,0,51.33c0,1-.28,1.26-1.21,1.18s-1.74,0-2.62,0c-.46,0-.7-.16-.66-.66,0-.21,0-.43,0-.65V57.65Z"/></svg>